<svg width="25" height="25" viewBox="0 0 25 25" fill="none" xmlns="http://www.w3.org/2000/svg">
    <path opacity="0.4" fill-rule="evenodd" clip-rule="evenodd" d="M12.5858 0.167236C9.40946 0.168021 6.3635 1.43036 4.11778 3.67663C1.87206 5.92291 0.610474 8.96917 0.610474 12.1455C0.610474 15.3218 1.87206 18.3681 4.11778 20.6144C6.3635 22.8606 9.40946 24.123 12.5858 24.1238V0.167236Z" fill="#643CAD"/>
    <path fill-rule="evenodd" clip-rule="evenodd" d="M24.6694 24.1237H12.5857C5.9685 24.0949 0.607496 18.7778 0.607496 12.1454L0.605591 12.145H12.5859L12.5857 12.1454L12.6058 12.145H13.2118C16.2408 12.2228 19.1229 13.4666 21.2574 15.6171C23.3919 17.7676 24.6142 20.6589 24.6694 23.6884V24.1237Z" fill="#643CAD"/>
    <path opacity="0.51" fill-rule="evenodd" clip-rule="evenodd" d="M12.5861 12.145L0.607697 12.1454C0.602014 14.6206 1.36843 17.036 2.8002 19.0551C2.81059 19.0697 2.82106 19.0844 2.83144 19.099C3.94229 20.6502 5.40622 21.9148 7.10232 22.7885C8.79843 23.6622 10.678 24.1199 12.5859 24.1237L12.5861 12.145Z" fill="#F4FBEC"/>
    <circle cx="19.5714" cy="6.15647" r="4.99094" fill="#643CAD"/>
</svg>