<svg width="102" height="25" viewBox="0 0 102 25" fill="none" xmlns="http://www.w3.org/2000/svg">
<path d="M89.5079 22.3506C84.4795 22.3506 80.52 18.5725 80.52 13.3265C80.52 8.08053 84.4795 4.35059 89.5079 4.35059C94.5605 4.35059 98.52 8.08053 98.52 13.3265C98.52 18.5725 94.5605 22.3506 89.5079 22.3506ZM89.5079 18.2837C92.2528 18.2837 93.7832 16.0458 93.7832 13.3265C93.7832 10.6073 92.2528 8.41743 89.5079 8.41743C86.7629 8.41743 85.2326 10.6073 85.2326 13.3265C85.2326 16.0458 86.7629 18.2837 89.5079 18.2837Z" fill="#16182D"/>
<path fill-rule="evenodd" clip-rule="evenodd" d="M62.52 22.1674C62.52 22.1593 62.52 22.1512 62.52 22.1431C62.52 16.8315 66.4795 13.0549 71.5079 13.0549C76.5605 13.0549 80.52 16.8315 80.52 22.1431C80.52 22.1512 80.52 22.1593 80.52 22.1674H75.7831C75.7832 22.1593 75.7832 22.1512 75.7832 22.1431C75.7832 19.3898 74.2528 17.1726 71.5079 17.1726C68.7629 17.1726 67.2326 19.3898 67.2326 22.1431C67.2326 22.1512 67.2326 22.1593 67.2326 22.1674H62.52Z" fill="#643CAD"/>
<path fill-rule="evenodd" clip-rule="evenodd" d="M80.52 4.16728C80.52 4.1754 80.52 4.18352 80.52 4.19165C80.52 9.50321 76.5605 13.2798 71.5322 13.2798C66.4795 13.2798 62.52 9.50321 62.52 4.19165C62.52 4.18352 62.52 4.1754 62.52 4.16728H67.2569C67.2569 4.1754 67.2569 4.18352 67.2569 4.19165C67.2569 6.94489 68.7872 9.1621 71.5322 9.1621C74.2771 9.1621 75.8075 6.94489 75.8075 4.19165C75.8075 4.18352 75.8075 4.1754 75.8074 4.16728H80.52Z" fill="#643CAD"/>
<path d="M59.456 22.1514H54.731V4.20137H59.456V22.1514Z" fill="#16182D"/>
<path d="M43.0921 22.1248L40.1671 10.9498L37.2421 22.1248H32.4671L27.9171 4.17475H32.5421L34.9671 14.8748L37.8171 4.17475H42.5921L45.3421 14.9248L47.7921 4.17475H52.4171L47.8421 22.1248H43.0921Z" fill="#16182D"/>
<path opacity="0.4" fill-rule="evenodd" clip-rule="evenodd" d="M12.5858 0.167236C9.40946 0.168021 6.3635 1.43036 4.11778 3.67663C1.87206 5.92291 0.610474 8.96917 0.610474 12.1455C0.610474 15.3218 1.87206 18.3681 4.11778 20.6144C6.3635 22.8606 9.40946 24.123 12.5858 24.1238V0.167236Z" fill="#643CAD"/>
<path fill-rule="evenodd" clip-rule="evenodd" d="M24.6694 24.1237H12.5857C5.9685 24.0949 0.607496 18.7778 0.607496 12.1454L0.605591 12.145H12.5859L12.5857 12.1454L12.6058 12.145H13.2118C16.2408 12.2228 19.1229 13.4666 21.2574 15.6171C23.3919 17.7676 24.6142 20.6589 24.6694 23.6884V24.1237Z" fill="#643CAD"/>
<path opacity="0.51" fill-rule="evenodd" clip-rule="evenodd" d="M12.5861 12.145L0.607697 12.1454C0.602014 14.6206 1.36843 17.036 2.8002 19.0551C2.81059 19.0697 2.82106 19.0844 2.83144 19.099C3.94229 20.6502 5.40622 21.9148 7.10232 22.7885C8.79843 23.6622 10.678 24.1199 12.5859 24.1237L12.5861 12.145Z" fill="#F4FBEC"/>
<circle cx="19.5714" cy="6.15647" r="4.99094" fill="#643CAD"/>
</svg>
